<?xml version="1.0" standalone="no"?>
<!DOCTYPE svg PUBLIC "-//W3C//DTD SVG 20010904//EN"
 "http://www.w3.org/TR/2001/REC-SVG-20010904/DTD/svg10.dtd">
<svg version="1.0" xmlns="http://www.w3.org/2000/svg"
 width="300.000000pt" height="300.000000pt" viewBox="0 0 300.000000 300.000000"
 preserveAspectRatio="xMidYMid meet">
<metadata>
Created by potrace 1.10, written by Peter Selinger 2001-2011
</metadata>
<g transform="translate(0.000000,300.000000) scale(0.100000,-0.100000)"
fill="#000000" stroke="none">
<path d="M1046 1999 l-37 -40 46 -51 c25 -28 52 -66 59 -83 27 -63 175 -168
258 -181 26 -5 56 -20 85 -45 49 -43 70 -46 253 -41 70 2 95 8 145 32 33 16
75 34 93 41 37 13 56 41 47 68 -7 22 -154 162 -216 207 -72 51 -88 57 -143 50
-28 -3 -73 -8 -101 -12 -56 -7 -215 11 -290 32 -27 8 -66 25 -87 39 -51 34
-70 32 -112 -16z m61 18 c14 -22 66 -54 118 -70 105 -34 316 -44 436 -21 18 3
42 -6 85 -35 79 -53 224 -191 224 -213 0 -10 -3 -17 -7 -16 -18 4 -99 -26
-132 -48 -35 -24 -91 -33 -91 -15 0 6 -16 3 -35 -5 -36 -15 -79 -19 -72 -6 3
4 -26 6 -64 5 -55 -2 -69 1 -69 12 0 8 -7 15 -16 15 -10 0 -14 6 -10 15 4 11
-2 15 -25 15 -24 0 -30 4 -25 15 4 12 -5 15 -54 15 -45 0 -60 4 -60 14 0 8
-15 17 -35 20 -35 7 -44 19 -24 32 7 4 -11 16 -42 27 -30 11 -48 22 -41 25 18
6 4 22 -21 23 l-22 0 23 16 23 16 -43 19 -42 19 29 15 c26 13 33 13 65 0 86
-38 300 -71 300 -47 0 6 -19 11 -47 11 -83 1 -204 28 -268 59 -64 32 -114 43
-60 14 43 -24 16 -27 -34 -4 -44 19 -43 29 3 33 14 1 26 3 26 5 0 1 -4 13 -10
27 -10 27 2 37 17 13z"/>
<path d="M1242 1915 c63 -23 225 -38 340 -30 121 8 124 7 238 -83 l55 -43 -47
44 c-26 25 -69 59 -95 76 -43 29 -53 31 -98 25 -90 -12 -277 -7 -348 10 -81
19 -95 19 -45 1z"/>
<path d="M1140 1892 c0 -13 66 -39 144 -57 85 -20 216 -30 216 -18 0 6 -32 14
-72 17 -60 6 -185 35 -265 61 -14 4 -23 3 -23 -3z"/>
<path d="M1575 1873 c-38 -2 -74 -8 -79 -13 -14 -14 104 -25 126 -11 10 6 23
9 28 6 15 -9 51 5 44 17 -4 6 -10 6 -17 -1 -14 -14 -30 -14 -22 -1 3 6 3 9 -2
8 -4 -1 -39 -4 -78 -5z"/>
<path d="M1689 1840 c-17 -13 -19 -19 -9 -19 21 0 53 26 42 33 -6 3 -21 -3
-33 -14z"/>
<path d="M1176 1831 c27 -27 345 -64 358 -42 5 8 -19 11 -81 11 -53 0 -121 8
-171 20 -92 22 -121 25 -106 11z"/>
<path d="M1583 1833 c-37 -2 -63 -9 -63 -15 0 -14 118 -4 133 11 6 6 7 10 2 9
-6 -1 -38 -3 -72 -5z"/>
<path d="M1718 1824 c-25 -13 -38 -34 -23 -34 17 0 65 32 60 40 -7 12 -4 12
-37 -6z"/>
<path d="M1753 1803 c-34 -23 -28 -36 7 -18 17 9 28 20 25 25 -7 12 -5 12 -32
-7z"/>
<path d="M1596 1801 c-22 -3 -42 -12 -44 -20 -5 -16 27 -10 82 14 33 14 24 16
-38 6z"/>
<path d="M1220 1785 c51 -27 268 -46 300 -25 10 7 -10 10 -67 10 -45 0 -117 7
-160 15 -95 18 -105 18 -73 0z"/>
<path d="M1643 1782 c-33 -16 -52 -42 -30 -42 7 1 23 7 37 15 33 19 46 19 30
0 -7 -8 -18 -15 -26 -15 -14 0 -47 -30 -40 -37 2 -2 27 7 55 21 50 26 66 46
36 46 -7 0 -18 6 -22 14 -7 11 -13 11 -40 -2z"/>
<path d="M1783 1783 c-13 -9 -23 -19 -23 -23 0 -12 37 0 50 15 16 20 -2 25
-27 8z"/>
<path d="M1560 1754 c-24 -10 -72 -13 -157 -11 -67 1 -124 -1 -128 -5 -13 -13
123 -19 205 -9 101 13 113 13 80 -1 -14 -5 -72 -13 -130 -16 -101 -6 -103 -6
-50 -14 84 -12 216 11 207 36 -3 8 0 19 6 25 13 13 13 13 -33 -5z"/>
<path d="M1804 1756 c-10 -8 -16 -17 -12 -21 8 -8 48 13 48 25 0 14 -13 12
-36 -4z"/>
<path d="M1703 1728 c-47 -28 -41 -42 7 -18 23 12 38 25 35 30 -4 6 -7 10 -8
9 -1 0 -17 -10 -34 -21z"/>
<path d="M1820 1725 c-13 -14 -18 -25 -11 -25 22 0 72 31 66 40 -10 17 -31 11
-55 -15z"/>
<path d="M1733 1709 c-37 -26 -55 -49 -38 -49 16 0 85 53 85 65 0 19 3 20 -47
-16z"/>
<path d="M1864 1706 c-10 -8 -16 -17 -12 -21 8 -8 48 13 48 25 0 14 -13 12
-36 -4z"/>
<path d="M1545 1695 c-22 -8 -52 -14 -67 -14 -16 -1 -28 -6 -28 -12 0 -8 14
-9 43 -5 58 9 107 26 107 37 0 11 -4 11 -55 -6z"/>
<path d="M1634 1696 c-11 -8 -47 -23 -80 -34 -38 -14 -50 -21 -34 -21 28 -1
124 41 134 58 9 15 5 14 -20 -3z"/>
<path d="M1758 1678 c-32 -22 -37 -38 -10 -31 30 8 57 32 46 42 -5 6 -19 2
-36 -11z"/>
<path d="M1805 1665 c-16 -14 -36 -25 -42 -25 -7 0 -13 -7 -13 -15 0 -12 11
-8 45 15 25 17 45 35 45 40 0 13 0 13 -35 -15z"/>
<path d="M1604 1656 c-23 -13 -52 -26 -65 -31 -20 -6 -21 -8 -7 -12 19 -5 102
32 120 54 15 19 -1 15 -48 -11z"/>
<path d="M1635 1638 c-51 -37 -51 -38 -23 -30 32 10 71 38 67 50 -2 5 -22 -4
-44 -20z"/>
<path d="M1844 1659 c-3 -6 -20 -19 -38 -30 -36 -22 -28 -26 13 -5 32 17 59
46 43 46 -6 0 -14 -5 -18 -11z"/>
<path d="M1677 1625 c-15 -14 -27 -27 -27 -29 0 -2 15 1 34 6 26 8 32 15 29
29 -3 11 -6 19 -7 19 -1 0 -14 -11 -29 -25z"/>
</g>
</svg>
